<svg xmlns="http://www.w3.org/2000/svg" viewBox="0 0 96 96" width="96" height="96" fill="none"><metadata><rdf:RDF xmlns:rdf="http://www.w3.org/1999/02/22-rdf-syntax-ns#" xmlns:dc="http://purl.org/dc/elements/1.1/"><rdf:Description><dc:creator>RealFaviconGenerator</dc:creator><dc:source>https://realfavicongenerator.net</dc:source></rdf:Description></rdf:RDF></metadata><circle cx="48" cy="48" r="46" fill="#161b27"></circle><circle cx="48" cy="48" r="42" stroke="#22d3ee" stroke-width="0.5" opacity="0.15"></circle><circle cx="48" cy="48" r="32" stroke="#22d3ee" stroke-width="0.5" opacity="0.25"></circle><circle cx="48" cy="48" r="22" stroke="#22d3ee" stroke-width="0.5" opacity="0.35"></circle><path d="M 48,48 L 90,48 A 42,42 0 0 1 78,78 Z" fill="#22d3ee" opacity="0.1"></path><line x1="48" y1="6" x2="48" y2="16" stroke="#22d3ee" stroke-width="0.75" opacity="0.6"></line><line x1="48" y1="80" x2="48" y2="90" stroke="#22d3ee" stroke-width="0.75" opacity="0.6"></line><line x1="6" y1="48" x2="16" y2="48" stroke="#22d3ee" stroke-width="0.75" opacity="0.6"></line><line x1="80" y1="48" x2="90" y2="48" stroke="#22d3ee" stroke-width="0.75" opacity="0.6"></line><circle cx="22" cy="26" r="2.2" fill="#22d3ee"></circle><circle cx="74" cy="22" r="2.2" fill="#3fb950"></circle><circle cx="78" cy="66" r="2.2" fill="#f85149"></circle><circle cx="26" cy="72" r="2.2" fill="#22d3ee"></circle><rect x="20" y="40" width="30" height="16" rx="8" fill="#161b27" stroke="#22d3ee" stroke-width="2.25"></rect><rect x="46" y="40" width="30" height="16" rx="8" fill="#161b27" stroke="#f85149" stroke-width="2.25"></rect></svg>